<svg width="285" height="128" viewBox="0 0 285 128" fill="none" xmlns="http://www.w3.org/2000/svg">
<path d="M54.007 57.54C54.007 56.4947 53.8763 55.7923 53.615 55.433C53.3863 55.0737 52.9127 54.894 52.194 54.894C51.8673 54.894 51.5407 54.9103 51.214 54.943C50.8873 54.9757 50.6587 54.992 50.528 54.992L50.43 54.796L50.773 52.64C51.165 52.6727 51.9 52.7053 52.978 52.738C54.056 52.7707 55.134 52.787 56.212 52.787C57.094 52.787 58.0903 52.738 59.201 52.64C60.3443 52.5093 61.0957 52.4113 61.455 52.346L61.259 54.551C60.0503 54.747 59.2173 55.0573 58.76 55.482C58.3027 55.874 58.0577 56.5437 58.025 57.491L57.437 78.512C57.4043 79.8187 57.535 80.7007 57.829 81.158C58.123 81.6153 58.711 81.844 59.593 81.844C60.083 81.844 60.5403 81.8277 60.965 81.795C61.3897 81.7623 61.6673 81.7297 61.798 81.697L61.896 81.893L61.455 84.147C61.0303 84.1143 60.23 84.0817 59.054 84.049C57.878 84.0163 56.6693 84 55.428 84L49.793 84.049L50.283 81.844C51.3283 81.746 52.096 81.5827 52.586 81.354C53.1087 81.1253 53.468 80.766 53.664 80.276C53.86 79.786 53.958 79.0673 53.958 78.12L54.007 57.54ZM67.678 58.765C68.6907 57.7523 69.197 56.903 69.197 56.217C69.197 55.3677 68.168 54.8777 66.11 54.747L66.012 54.551L66.355 52.444C66.747 52.4767 67.5473 52.542 68.756 52.64C69.9973 52.738 70.9937 52.787 71.745 52.787C72.529 52.787 73.3947 52.7707 74.342 52.738C75.322 52.6727 75.959 52.6237 76.253 52.591L76.449 52.934L76.106 54.943C75.2567 55.1063 74.4727 55.4493 73.754 55.972C73.0353 56.4947 71.941 57.5237 70.471 59.059L62.582 67.34L70.814 78.071C71.99 79.6063 73.0353 80.6843 73.95 81.305C74.8973 81.9257 75.9427 82.236 77.086 82.236L77.282 82.432L76.988 84.098C76.6287 84.1633 75.91 84.2777 74.832 84.441C73.7867 84.6043 73.1497 84.686 72.921 84.686C72.137 84.686 71.2713 84.3267 70.324 83.608C69.3767 82.8567 68.413 81.8113 67.433 80.472L58.858 68.565L58.907 67.879L67.678 58.765ZM100.969 78.463C101.361 79.6717 101.883 80.521 102.537 81.011C103.19 81.501 104.235 81.8113 105.673 81.942L105.771 82.138L105.428 84.147C105.036 84.147 104.317 84.1143 103.272 84.049C102.259 84.0163 101.246 84 100.234 84C98.6655 84 97.1465 84.0653 95.6765 84.196C94.2392 84.3267 93.3245 84.4247 92.9325 84.49L92.7855 84.147L92.9815 82.236C94.6475 82.1053 95.7909 81.9093 96.4115 81.648C97.0322 81.3867 97.3425 80.962 97.3425 80.374C97.3425 79.7207 97.1955 78.9367 96.9015 78.022L95.2845 72.681C94.5005 72.6483 92.8019 72.632 90.1885 72.632C88.6205 72.632 86.8402 72.7627 84.8475 73.024L83.0345 78.12C82.7405 79.002 82.5935 79.639 82.5935 80.031C82.5935 80.7497 82.8222 81.2723 83.2795 81.599C83.7369 81.893 84.4882 82.04 85.5335 82.04H88.3265L88.4245 82.236L88.1305 84.343C87.7385 84.3103 86.8402 84.245 85.4355 84.147C84.0309 84.049 82.6589 84 81.3195 84C80.1109 84 78.9839 84.0163 77.9385 84.049C76.9259 84.0817 76.2562 84.1143 75.9295 84.147L76.3215 81.844C77.2362 81.746 77.9712 81.4357 78.5265 80.913C79.0819 80.3577 79.6209 79.4103 80.1435 78.071L89.6985 53.032L92.7855 52.199H93.1775C93.3735 52.983 93.8635 54.796 94.6475 57.638C95.4642 60.48 96.4442 63.8447 97.5875 67.732C98.7635 71.6193 99.8905 75.1963 100.969 78.463ZM90.0415 70.623C91.1849 70.623 92.7039 70.5413 94.5985 70.378L90.7275 57.54H90.3845L85.7295 70.623H90.0415ZM115.577 77.924C115.577 79.1653 115.658 80.0637 115.822 80.619C115.985 81.1417 116.295 81.501 116.753 81.697C117.21 81.8603 117.994 81.942 119.105 81.942L119.203 82.138L118.762 84.196C118.37 84.1633 117.586 84.1307 116.41 84.098C115.234 84.0653 114.009 84.049 112.735 84.049C111.591 84.049 110.579 84.0653 109.697 84.098C108.815 84.1307 108.227 84.1633 107.933 84.196L108.374 81.991C109.419 81.8603 110.203 81.6807 110.726 81.452C111.248 81.2233 111.608 80.864 111.804 80.374C112 79.8513 112.098 79.1 112.098 78.12L112.147 57.54C112.147 56.4947 112.016 55.7923 111.755 55.433C111.526 55.0737 111.052 54.894 110.334 54.894C110.007 54.894 109.68 54.9103 109.354 54.943C109.027 54.9757 108.798 54.992 108.668 54.992L108.57 54.796L108.913 52.64C109.305 52.6727 110.04 52.7053 111.118 52.738C112.196 52.7707 113.274 52.787 114.352 52.787C115.462 52.787 116.622 52.7707 117.831 52.738C119.072 52.6727 119.921 52.6237 120.379 52.591C123.417 52.591 125.818 53.277 127.582 54.649C129.346 56.021 130.228 57.8993 130.228 60.284C130.228 62.244 129.591 64.0407 128.317 65.674C127.075 67.3073 125.311 68.6467 123.025 69.692L128.415 78.218C129.362 79.786 130.277 80.8803 131.159 81.501C132.073 82.089 133.184 82.383 134.491 82.383L134.687 82.579L134.393 84.245L130.228 84.784C129.411 84.784 128.529 84.3757 127.582 83.559C126.667 82.7097 125.818 81.5663 125.034 80.129L119.791 70.623H115.724L115.577 77.924ZM120.869 68.369C120.869 68.467 121.359 68.2547 122.339 67.732C123.319 67.2093 124.201 66.409 124.985 65.331C125.769 64.253 126.161 62.8647 126.161 61.166C126.161 56.854 123.172 54.698 117.194 54.698C116.867 54.698 116.638 54.7797 116.508 54.943C116.41 55.0737 116.344 55.3677 116.312 55.825C116.018 60.823 115.854 64.841 115.822 67.879L120.869 68.369ZM143.523 84C142.51 84 141.416 84.0817 140.24 84.245C139.064 84.4083 138.296 84.5227 137.937 84.588L138.231 82.334C139.733 82.04 140.746 81.6153 141.269 81.06C141.791 80.472 142.053 79.492 142.053 78.12L142.102 57.54C142.102 56.4947 141.971 55.7923 141.71 55.433C141.481 55.0737 141.007 54.894 140.289 54.894C139.962 54.894 139.635 54.9103 139.309 54.943C138.982 54.9757 138.753 54.992 138.623 54.992L138.525 54.796L138.868 52.64C139.26 52.6727 139.995 52.7053 141.073 52.738C142.151 52.7707 143.229 52.787 144.307 52.787C145.417 52.787 146.544 52.7707 147.688 52.738C148.864 52.6727 149.664 52.6237 150.089 52.591C153.192 52.591 155.577 53.2443 157.243 54.551C158.909 55.825 159.742 57.6543 159.742 60.039C159.742 61.6723 159.235 63.1423 158.223 64.449C157.243 65.7557 155.854 66.801 154.058 67.585C156.442 68.1077 158.304 69.0223 159.644 70.329C160.983 71.6357 161.653 73.2037 161.653 75.033C161.653 76.699 161.114 78.267 160.036 79.737C158.99 81.1743 157.586 82.334 155.822 83.216C154.058 84.0653 152.163 84.49 150.138 84.49C149.256 84.49 148.243 84.4083 147.1 84.245C145.238 84.0817 144.045 84 143.523 84ZM145.826 66.801C146.316 66.8337 147.132 66.899 148.276 66.997C149.452 67.095 150.415 67.1603 151.167 67.193C151.167 67.291 151.591 67.1277 152.441 66.703C153.29 66.2457 154.058 65.5597 154.744 64.645C155.43 63.6977 155.773 62.44 155.773 60.872C155.773 58.7813 155.07 57.2297 153.666 56.217C152.261 55.2043 150.089 54.698 147.149 54.698C146.822 54.698 146.593 54.7797 146.463 54.943C146.365 55.0737 146.299 55.3677 146.267 55.825C146.071 58.961 145.924 62.6197 145.826 66.801ZM145.532 78.561C145.532 79.8023 145.956 80.6843 146.806 81.207C147.655 81.7297 149.092 81.991 151.118 81.991C153.078 81.991 154.613 81.452 155.724 80.374C156.867 79.2633 157.439 77.777 157.439 75.915C157.439 74.151 156.883 72.7137 155.773 71.603C154.662 70.4597 153.012 69.692 150.824 69.3L145.728 69.398L145.532 78.561ZM175.455 57.344C175.259 61.166 175.096 65.1677 174.965 69.349C174.834 73.4977 174.769 76.552 174.769 78.512C174.769 79.8513 174.916 80.7497 175.21 81.207C175.504 81.6317 176.076 81.844 176.925 81.844C177.513 81.844 178.052 81.8277 178.542 81.795C179.032 81.7623 179.359 81.7297 179.522 81.697L179.62 81.893L179.179 84.147C178.722 84.1143 177.856 84.0817 176.582 84.049C175.341 84.0163 174.067 84 172.76 84C171.715 84 170.588 84.0817 169.379 84.245C168.203 84.4083 167.435 84.5227 167.076 84.588L167.37 82.334C168.905 82.04 169.934 81.6153 170.457 81.06C171.012 80.472 171.29 79.492 171.29 78.12L171.339 57.54C171.339 56.4947 171.208 55.7923 170.947 55.433C170.718 55.0737 170.245 54.894 169.526 54.894C169.101 54.894 168.677 54.9103 168.252 54.943C167.86 54.9757 167.599 54.992 167.468 54.992L167.37 54.796L167.713 52.64C168.138 52.6727 168.922 52.7053 170.065 52.738C171.208 52.7707 172.368 52.787 173.544 52.787C174.491 52.787 175.569 52.738 176.778 52.64C178.019 52.5093 178.82 52.4113 179.179 52.346L178.983 54.551C177.611 54.7143 176.696 54.992 176.239 55.384C175.782 55.7433 175.52 56.3967 175.455 57.344ZM192.474 78.855C192.474 79.8023 192.556 80.472 192.719 80.864C192.882 81.2233 193.209 81.4683 193.699 81.599C194.222 81.7297 195.104 81.795 196.345 81.795C199.089 81.795 201.033 81.6643 202.176 81.403C203.352 81.1417 204.185 80.619 204.675 79.835C205.165 79.051 205.541 77.7117 205.802 75.817L207.958 75.572L208.105 75.817C208.007 76.2743 207.811 77.336 207.517 79.002C207.223 80.6353 206.978 82.3177 206.782 84.049L206.537 84.343C205.426 84.3103 203.156 84.245 199.726 84.147C196.296 84.049 193.617 84 191.69 84C190.155 84 188.717 84.0653 187.378 84.196C186.071 84.3267 185.238 84.4247 184.879 84.49L185.173 82.236C186.643 82.04 187.639 81.6643 188.162 81.109C188.717 80.521 188.995 79.5247 188.995 78.12L189.044 57.54C189.044 56.4947 188.913 55.7923 188.652 55.433C188.423 55.0737 187.95 54.894 187.231 54.894C186.904 54.894 186.578 54.9103 186.251 54.943C185.924 54.9757 185.696 54.992 185.565 54.992L185.467 54.796L185.81 52.64C186.235 52.6727 187.084 52.7053 188.358 52.738C189.665 52.7707 191.086 52.787 192.621 52.787C196.508 52.787 199.53 52.7543 201.686 52.689C203.842 52.591 205.72 52.4277 207.321 52.199L207.468 52.493C207.435 52.689 207.337 53.1627 207.174 53.914C207.043 54.6327 206.896 55.5963 206.733 56.805C206.57 58.0137 206.439 59.2877 206.341 60.627L203.989 60.823C203.989 60.6597 204.005 60.382 204.038 59.99C204.071 59.5653 204.087 59.1407 204.087 58.716C204.087 57.5727 203.94 56.7887 203.646 56.364C203.352 55.9067 202.715 55.6127 201.735 55.482C200.755 55.3187 199.04 55.237 196.59 55.237C195.447 55.237 194.663 55.2697 194.238 55.335C193.813 55.4003 193.536 55.5637 193.405 55.825C193.274 56.0537 193.193 56.4947 193.16 57.148L192.768 66.654L197.815 66.703C198.566 66.703 199.628 66.6377 201 66.507C202.405 66.3437 203.336 66.2293 203.793 66.164L203.989 66.409L203.303 69.3C202.846 69.2673 201.947 69.2347 200.608 69.202C199.301 69.1693 197.913 69.153 196.443 69.153C195.234 69.153 193.977 69.2673 192.67 69.496C192.539 74.2 192.474 77.3197 192.474 78.855ZM221.718 84.588C220.346 84.588 219.089 84.4573 217.945 84.196C216.802 83.9673 215.855 83.706 215.103 83.412C214.385 83.118 214.025 82.9547 214.025 82.922L213.78 82.432C213.813 82.236 213.878 81.746 213.976 80.962C214.074 80.178 214.156 79.1653 214.221 77.924C214.319 76.65 214.368 75.3107 214.368 73.906L216.573 73.661C216.573 76.111 216.737 77.924 217.063 79.1C217.39 80.276 217.994 81.0927 218.876 81.55C219.758 81.9747 221.114 82.187 222.943 82.187C225.001 82.187 226.651 81.7133 227.892 80.766C229.134 79.786 229.754 78.463 229.754 76.797C229.754 75.817 229.411 74.935 228.725 74.151C228.072 73.367 227.288 72.6973 226.373 72.142C225.459 71.5867 224.103 70.8353 222.306 69.888C220.608 69.006 219.219 68.2057 218.141 67.487C217.063 66.7357 216.149 65.8537 215.397 64.841C214.679 63.8283 214.319 62.6523 214.319 61.313C214.319 59.6143 214.809 58.079 215.789 56.707C216.802 55.3023 218.158 54.208 219.856 53.424C221.588 52.6073 223.499 52.199 225.589 52.199C226.896 52.199 228.105 52.297 229.215 52.493C230.326 52.6563 231.208 52.836 231.861 53.032C232.515 53.228 232.923 53.3587 233.086 53.424L233.233 53.718C233.201 53.914 233.119 54.3713 232.988 55.09C232.858 55.8087 232.711 56.805 232.547 58.079C232.384 59.353 232.253 60.6597 232.155 61.999L230.244 62.195L229.95 61.95C229.983 61.8193 230.016 61.5253 230.048 61.068C230.081 60.578 230.097 60.0227 230.097 59.402C230.097 57.6707 229.673 56.4783 228.823 55.825C227.974 55.1717 226.455 54.845 224.266 54.845C222.47 54.845 220.983 55.3023 219.807 56.217C218.664 57.099 218.092 58.2097 218.092 59.549C218.092 60.8557 218.648 61.999 219.758 62.979C220.902 63.9263 222.568 64.9717 224.756 66.115C226.88 67.193 228.497 68.0913 229.607 68.81C230.718 69.496 231.698 70.3617 232.547 71.407C233.397 72.4523 233.821 73.661 233.821 75.033C233.821 76.8623 233.299 78.512 232.253 79.982C231.241 81.4193 229.82 82.5463 227.99 83.363C226.161 84.1797 224.07 84.588 221.718 84.588Z" fill="white"/>
<path d="M93.2446 95.016C93.8419 95.016 94.4179 95.144 94.9726 95.4C95.2819 95.5387 95.5272 95.752 95.7086 96.04C95.9006 96.328 95.9966 96.664 95.9966 97.048C95.9966 97.432 95.8259 97.6933 95.4846 97.832C95.3459 97.8853 95.1966 97.912 95.0366 97.912C94.8872 97.912 94.7326 97.8587 94.5726 97.752C94.6152 97.528 94.6366 97.2667 94.6366 96.968C94.6366 96.6587 94.5406 96.3653 94.3486 96.088C94.0712 95.672 93.6766 95.464 93.1646 95.464C91.6819 95.464 90.9406 96.6853 90.9406 99.128C90.9406 100.323 91.1112 101.224 91.4526 101.832C91.8046 102.429 92.3699 102.728 93.1486 102.728C94.1406 102.728 94.9352 102.248 95.5326 101.288C95.7672 101.363 95.8846 101.48 95.8846 101.64C95.8846 101.789 95.7832 101.981 95.5806 102.216C95.3886 102.44 95.0472 102.659 94.5566 102.872C94.0766 103.075 93.5219 103.176 92.8926 103.176C91.7939 103.176 90.9032 102.803 90.2206 102.056C89.5486 101.309 89.2126 100.323 89.2126 99.096C89.2126 97.8693 89.5752 96.8827 90.3006 96.136C91.0366 95.3893 92.0179 95.016 93.2446 95.016ZM105.306 99.096C105.306 100.28 104.948 101.256 104.234 102.024C103.519 102.792 102.543 103.176 101.306 103.176C100.079 103.176 99.1082 102.792 98.3936 102.024C97.6789 101.256 97.3216 100.28 97.3216 99.096C97.3216 97.912 97.6789 96.936 98.3936 96.168C99.1082 95.4 100.079 95.016 101.306 95.016C102.543 95.016 103.519 95.4 104.234 96.168C104.948 96.936 105.306 97.912 105.306 99.096ZM99.0656 99.096C99.0656 101.56 99.8122 102.792 101.306 102.792C102.81 102.792 103.562 101.56 103.562 99.096C103.562 97.9013 103.391 96.9893 103.05 96.36C102.708 95.7307 102.132 95.416 101.322 95.416C100.511 95.416 99.9296 95.7307 99.5776 96.36C99.2362 96.9893 99.0656 97.9013 99.0656 99.096ZM107.623 95.608H106.503V95.192H107.623V94.952C107.623 93.5333 107.922 92.4667 108.519 91.752C109.117 91.0373 109.97 90.68 111.079 90.68C111.741 90.68 112.29 90.808 112.727 91.064C113.175 91.3093 113.399 91.6453 113.399 92.072C113.399 92.488 113.255 92.792 112.967 92.984C112.797 93.1013 112.626 93.16 112.455 93.16C112.295 93.16 112.141 93.128 111.991 93.064C112.055 92.7653 112.087 92.4773 112.087 92.2C112.087 91.9227 111.991 91.6773 111.799 91.464C111.607 91.2507 111.341 91.144 110.999 91.144C110.658 91.144 110.365 91.24 110.119 91.432C109.885 91.6133 109.709 91.832 109.591 92.088C109.474 92.3333 109.383 92.664 109.319 93.08C109.234 93.6347 109.191 94.3387 109.191 95.192H111.607V95.608H109.191V102.536L110.983 102.616L110.999 103H106.551L106.535 102.616L107.623 102.552V95.608ZM113.483 95.608H112.363V95.192H113.483V94.952C113.483 93.5333 113.781 92.4667 114.379 91.752C114.976 91.0373 115.829 90.68 116.939 90.68C117.6 90.68 118.149 90.808 118.587 91.064C119.035 91.3093 119.259 91.6453 119.259 92.072C119.259 92.488 119.115 92.792 118.827 92.984C118.656 93.1013 118.485 93.16 118.315 93.16C118.155 93.16 118 93.128 117.851 93.064C117.915 92.7653 117.947 92.4773 117.947 92.2C117.947 91.9227 117.851 91.6773 117.659 91.464C117.467 91.2507 117.2 91.144 116.859 91.144C116.517 91.144 116.224 91.24 115.979 91.432C115.744 91.6133 115.568 91.832 115.451 92.088C115.333 92.3333 115.243 92.664 115.179 93.08C115.093 93.6347 115.051 94.3387 115.051 95.192H117.467V95.608H115.051V102.536L116.843 102.616L116.859 103H112.411L112.395 102.616L113.483 102.552V95.608ZM121.892 103.176C120.794 103.176 119.908 102.803 119.236 102.056C118.564 101.309 118.228 100.323 118.228 99.096C118.228 97.8693 118.58 96.8827 119.284 96.136C119.999 95.3893 120.895 95.016 121.972 95.016C123.05 95.016 123.855 95.2613 124.388 95.752C124.922 96.232 125.188 96.904 125.188 97.768C125.188 98.024 125.167 98.28 125.124 98.536H119.956V99.096C119.956 100.291 120.127 101.197 120.468 101.816C120.81 102.424 121.37 102.728 122.148 102.728C123.247 102.728 124.095 102.248 124.692 101.288C124.927 101.363 125.044 101.475 125.044 101.624C125.044 101.891 124.799 102.2 124.308 102.552C124.074 102.723 123.743 102.872 123.316 103C122.89 103.117 122.415 103.176 121.892 103.176ZM123.668 97.432C123.668 96.9413 123.567 96.52 123.364 96.168C123.087 95.6987 122.639 95.464 122.02 95.464C120.868 95.464 120.196 96.296 120.004 97.96H123.636C123.658 97.7787 123.668 97.6027 123.668 97.432ZM130.314 103.176C129.215 103.176 128.33 102.803 127.658 102.056C126.986 101.309 126.65 100.323 126.65 99.096C126.65 97.8693 127.002 96.8827 127.706 96.136C128.421 95.3893 129.317 95.016 130.394 95.016C131.471 95.016 132.277 95.2613 132.81 95.752C133.343 96.232 133.61 96.904 133.61 97.768C133.61 98.024 133.589 98.28 133.546 98.536H128.378V99.096C128.378 100.291 128.549 101.197 128.89 101.816C129.231 102.424 129.791 102.728 130.57 102.728C131.669 102.728 132.517 102.248 133.114 101.288C133.349 101.363 133.466 101.475 133.466 101.624C133.466 101.891 133.221 102.2 132.73 102.552C132.495 102.723 132.165 102.872 131.738 103C131.311 103.117 130.837 103.176 130.314 103.176ZM132.09 97.432C132.09 96.9413 131.989 96.52 131.786 96.168C131.509 95.6987 131.061 95.464 130.442 95.464C129.29 95.464 128.618 96.296 128.426 97.96H132.058C132.079 97.7787 132.09 97.6027 132.09 97.432ZM150.286 102.424C150.468 102.424 150.665 102.408 150.878 102.376C150.878 102.515 150.793 102.659 150.622 102.808C150.313 103.064 149.817 103.192 149.134 103.192C148.089 103.192 147.108 102.787 146.19 101.976C145.369 102.776 144.265 103.176 142.878 103.176C141.865 103.176 141.001 102.936 140.286 102.456C139.582 101.976 139.225 101.288 139.214 100.392C139.214 99.7307 139.454 99.1387 139.934 98.616C140.414 98.0933 141.054 97.7147 141.854 97.48C140.969 96.7013 140.526 95.8267 140.526 94.856C140.526 94.1093 140.782 93.4853 141.294 92.984C141.806 92.472 142.484 92.216 143.326 92.216C144.18 92.216 144.862 92.4347 145.374 92.872C145.897 93.2987 146.158 93.848 146.158 94.52C146.158 94.616 146.153 94.712 146.142 94.808C146.068 95.5013 145.753 96.0773 145.198 96.536C144.654 96.984 144.126 97.2187 143.614 97.24L143.518 97.176C144.073 97.7627 145.108 98.8133 146.622 100.328C146.868 99.72 146.99 99.1173 146.99 98.52C146.99 97.912 146.953 97.4 146.878 96.984C147.017 96.9093 147.14 96.872 147.246 96.872C147.513 96.872 147.646 97.1707 147.646 97.768C147.646 98.9093 147.449 99.9013 147.054 100.744L147.102 100.792C148.244 101.88 149.305 102.424 150.286 102.424ZM140.942 100.296C140.942 100.947 141.161 101.485 141.598 101.912C142.046 102.328 142.585 102.536 143.214 102.536C144.26 102.536 145.113 102.221 145.774 101.592C145.412 101.187 144.836 100.584 144.046 99.784C143.257 98.984 142.676 98.3653 142.302 97.928L142.238 97.864C141.374 98.472 140.942 99.2827 140.942 100.296ZM143.246 96.888C144.206 96.4507 144.686 95.5867 144.686 94.296C144.686 93.8373 144.564 93.448 144.318 93.128C144.073 92.808 143.732 92.648 143.294 92.648C142.857 92.648 142.505 92.8133 142.238 93.144C141.982 93.464 141.854 93.9173 141.854 94.504C141.854 94.8027 141.924 95.1013 142.062 95.4C142.212 95.688 142.345 95.9013 142.462 96.04C142.59 96.1787 142.852 96.4613 143.246 96.888ZM159.995 95.016C160.592 95.016 161.168 95.144 161.723 95.4C162.032 95.5387 162.277 95.752 162.459 96.04C162.651 96.328 162.747 96.664 162.747 97.048C162.747 97.432 162.576 97.6933 162.235 97.832C162.096 97.8853 161.947 97.912 161.787 97.912C161.637 97.912 161.483 97.8587 161.323 97.752C161.365 97.528 161.387 97.2667 161.387 96.968C161.387 96.6587 161.291 96.3653 161.099 96.088C160.821 95.672 160.427 95.464 159.915 95.464C158.432 95.464 157.691 96.6853 157.691 99.128C157.691 100.323 157.861 101.224 158.203 101.832C158.555 102.429 159.12 102.728 159.899 102.728C160.891 102.728 161.685 102.248 162.283 101.288C162.517 101.363 162.635 101.48 162.635 101.64C162.635 101.789 162.533 101.981 162.331 102.216C162.139 102.44 161.797 102.659 161.307 102.872C160.827 103.075 160.272 103.176 159.643 103.176C158.544 103.176 157.653 102.803 156.971 102.056C156.299 101.309 155.963 100.323 155.963 99.096C155.963 97.8693 156.325 96.8827 157.051 96.136C157.787 95.3893 158.768 95.016 159.995 95.016ZM165.56 101.272C165.56 101.965 165.842 102.376 166.408 102.504C166.536 102.536 166.658 102.552 166.776 102.552C167.181 102.552 167.602 102.381 168.04 102.04C168.477 101.688 168.706 101.219 168.728 100.632V99.256C166.616 99.2773 165.56 99.9493 165.56 101.272ZM166.2 103.192C165.592 103.192 165.069 103.027 164.632 102.696C164.205 102.355 163.992 101.88 163.992 101.272C164.002 100.451 164.413 99.8373 165.224 99.432C166.045 99.0267 167.213 98.824 168.728 98.824V97.448C168.728 96.0933 168.237 95.416 167.256 95.416C166.754 95.416 166.349 95.624 166.04 96.04C165.826 96.328 165.72 96.6853 165.72 97.112C165.72 97.2933 165.741 97.4853 165.784 97.688C165.634 97.7947 165.48 97.848 165.32 97.848C165.17 97.848 165.021 97.816 164.872 97.752C164.53 97.624 164.36 97.3787 164.36 97.016C164.36 96.5253 164.536 96.12 164.888 95.8C165.464 95.2773 166.258 95.016 167.272 95.016C168.285 95.016 169.021 95.2347 169.48 95.672C169.938 96.0987 170.168 96.776 170.168 97.704V102.552L171.512 102.616L171.528 102.984L168.856 103.176L168.712 101.752C168.221 102.712 167.384 103.192 166.2 103.192ZM176.915 95.192H180.051V95.56L178.867 95.864L175.811 98.488L179.363 102.504L180.435 102.616V103H176.643V102.616L177.539 102.536L174.563 99.032V102.536L175.555 102.616V103H171.955V102.616L172.995 102.536V91.512L171.587 91.448L171.571 91.08L174.563 90.744V98.84L177.955 95.864L176.915 95.56V95.192ZM184.298 103.176C183.2 103.176 182.314 102.803 181.642 102.056C180.97 101.309 180.634 100.323 180.634 99.096C180.634 97.8693 180.986 96.8827 181.69 96.136C182.405 95.3893 183.301 95.016 184.378 95.016C185.456 95.016 186.261 95.2613 186.794 95.752C187.328 96.232 187.594 96.904 187.594 97.768C187.594 98.024 187.573 98.28 187.53 98.536H182.362V99.096C182.362 100.291 182.533 101.197 182.874 101.816C183.216 102.424 183.776 102.728 184.554 102.728C185.653 102.728 186.501 102.248 187.098 101.288C187.333 101.363 187.45 101.475 187.45 101.624C187.45 101.891 187.205 102.2 186.714 102.552C186.48 102.723 186.149 102.872 185.722 103C185.296 103.117 184.821 103.176 184.298 103.176ZM186.074 97.432C186.074 96.9413 185.973 96.52 185.77 96.168C185.493 95.6987 185.045 95.464 184.426 95.464C183.274 95.464 182.602 96.296 182.41 97.96H186.042C186.064 97.7787 186.074 97.6027 186.074 97.432ZM191.936 102.776C192.363 102.776 192.731 102.659 193.04 102.424C193.36 102.189 193.52 101.795 193.52 101.24C193.52 100.867 193.35 100.557 193.008 100.312C192.678 100.067 192.262 99.848 191.76 99.656C191.259 99.4533 190.918 99.3147 190.736 99.24C190.566 99.1547 190.336 99.0213 190.048 98.84C189.526 98.488 189.264 97.9813 189.264 97.32C189.264 96.6587 189.526 96.1093 190.048 95.672C190.571 95.2347 191.334 95.016 192.336 95.016C192.976 95.016 193.52 95.16 193.968 95.448C194.427 95.7253 194.656 96.0613 194.656 96.456C194.656 96.8507 194.507 97.1227 194.208 97.272C194.048 97.3467 193.888 97.384 193.728 97.384C193.579 97.384 193.43 97.352 193.28 97.288C193.323 97.096 193.344 96.888 193.344 96.664C193.344 96.44 193.291 96.216 193.184 95.992C193.003 95.608 192.656 95.416 192.144 95.416C191.632 95.416 191.243 95.5547 190.976 95.832C190.71 96.1093 190.576 96.472 190.576 96.92C190.576 97.3787 190.768 97.72 191.152 97.944C191.44 98.1253 191.798 98.2907 192.224 98.44C192.651 98.5893 192.939 98.696 193.088 98.76C193.248 98.8133 193.456 98.9093 193.712 99.048C193.968 99.1867 194.16 99.3307 194.288 99.48C194.619 99.8427 194.784 100.333 194.784 100.952C194.784 101.571 194.507 102.099 193.952 102.536C193.398 102.963 192.72 103.176 191.92 103.176C191.12 103.176 190.416 103.053 189.808 102.808C189.211 102.563 188.912 102.205 188.912 101.736C188.912 101.299 189.238 101.011 189.888 100.872C190.08 102.141 190.763 102.776 191.936 102.776Z" fill="white"/>
<path d="M123.034 33.874C123.274 33.874 123.481 33.808 123.655 33.676C123.835 33.544 123.925 33.322 123.925 33.01C123.925 32.8 123.829 32.626 123.637 32.488C123.451 32.35 123.217 32.227 122.935 32.119C122.653 32.005 122.461 31.927 122.359 31.885C122.263 31.837 122.134 31.762 121.972 31.66C121.678 31.462 121.531 31.177 121.531 30.805C121.531 30.433 121.678 30.124 121.972 29.878C122.266 29.632 122.695 29.509 123.259 29.509C123.619 29.509 123.925 29.59 124.177 29.752C124.435 29.908 124.564 30.097 124.564 30.319C124.564 30.541 124.48 30.694 124.312 30.778C124.222 30.82 124.132 30.841 124.042 30.841C123.958 30.841 123.874 30.823 123.79 30.787C123.814 30.679 123.826 30.562 123.826 30.436C123.826 30.31 123.796 30.184 123.736 30.058C123.634 29.842 123.439 29.734 123.151 29.734C122.863 29.734 122.644 29.812 122.494 29.968C122.344 30.124 122.269 30.328 122.269 30.58C122.269 30.838 122.377 31.03 122.593 31.156C122.755 31.258 122.956 31.351 123.196 31.435C123.436 31.519 123.598 31.579 123.682 31.615C123.772 31.645 123.889 31.699 124.033 31.777C124.177 31.855 124.285 31.936 124.357 32.02C124.543 32.224 124.636 32.5 124.636 32.848C124.636 33.196 124.48 33.493 124.168 33.739C123.856 33.979 123.475 34.099 123.025 34.099C122.575 34.099 122.179 34.03 121.837 33.892C121.501 33.754 121.333 33.553 121.333 33.289C121.333 33.043 121.516 32.881 121.882 32.803C121.99 33.517 122.374 33.874 123.034 33.874ZM126.942 28.141C126.942 28.285 126.891 28.411 126.789 28.519C126.687 28.621 126.558 28.672 126.402 28.672C126.252 28.672 126.126 28.621 126.024 28.519C125.922 28.417 125.871 28.291 125.871 28.141C125.871 27.985 125.922 27.856 126.024 27.754C126.126 27.646 126.252 27.592 126.402 27.592C126.552 27.592 126.678 27.646 126.78 27.754C126.888 27.862 126.942 27.991 126.942 28.141ZM125.412 34V33.784L126.006 33.739V29.914L125.214 29.887V29.68L126.888 29.563V33.739L127.482 33.784V34H125.412ZM129.533 30.562C129.803 29.866 130.346 29.518 131.162 29.518C131.57 29.518 131.9 29.641 132.152 29.887C132.404 30.127 132.53 30.472 132.53 30.922C132.53 31.696 132.506 32.635 132.458 33.739L133.079 33.784V34H131.09V33.784L131.576 33.748C131.624 32.392 131.648 31.615 131.648 31.417C131.648 31.219 131.645 31.069 131.639 30.967C131.633 30.859 131.615 30.73 131.585 30.58C131.561 30.424 131.522 30.301 131.468 30.211C131.336 29.989 131.129 29.878 130.847 29.878C130.463 29.878 130.148 30.037 129.902 30.355C129.656 30.673 129.533 31.018 129.533 31.39V33.739L130.208 33.784V34H128.057V33.784L128.651 33.739V29.932L127.886 29.896V29.689L129.497 29.581L129.452 30.553L129.533 30.562ZM135.969 29.509C136.305 29.509 136.629 29.581 136.941 29.725C137.115 29.803 137.253 29.923 137.355 30.085C137.463 30.247 137.517 30.436 137.517 30.652C137.517 30.868 137.421 31.015 137.229 31.093C137.151 31.123 137.067 31.138 136.977 31.138C136.893 31.138 136.806 31.108 136.716 31.048C136.74 30.922 136.752 30.775 136.752 30.607C136.752 30.433 136.698 30.268 136.59 30.112C136.434 29.878 136.212 29.761 135.924 29.761C135.09 29.761 134.673 30.448 134.673 31.822C134.673 32.494 134.769 33.001 134.961 33.343C135.159 33.679 135.477 33.847 135.915 33.847C136.473 33.847 136.92 33.577 137.256 33.037C137.388 33.079 137.454 33.145 137.454 33.235C137.454 33.319 137.397 33.427 137.283 33.559C137.175 33.685 136.983 33.808 136.707 33.928C136.437 34.042 136.125 34.099 135.771 34.099C135.153 34.099 134.652 33.889 134.268 33.469C133.89 33.049 133.701 32.494 133.701 31.804C133.701 31.114 133.905 30.559 134.313 30.139C134.727 29.719 135.279 29.509 135.969 29.509ZM140.332 34.099C139.714 34.099 139.216 33.889 138.838 33.469C138.46 33.049 138.271 32.494 138.271 31.804C138.271 31.114 138.469 30.559 138.865 30.139C139.267 29.719 139.771 29.509 140.377 29.509C140.983 29.509 141.436 29.647 141.736 29.923C142.036 30.193 142.186 30.571 142.186 31.057C142.186 31.201 142.174 31.345 142.15 31.489H139.243V31.804C139.243 32.476 139.339 32.986 139.531 33.334C139.723 33.676 140.038 33.847 140.476 33.847C141.094 33.847 141.571 33.577 141.907 33.037C142.039 33.079 142.105 33.142 142.105 33.226C142.105 33.376 141.967 33.55 141.691 33.748C141.559 33.844 141.373 33.928 141.133 34C140.893 34.066 140.626 34.099 140.332 34.099ZM141.331 30.868C141.331 30.592 141.274 30.355 141.16 30.157C141.004 29.893 140.752 29.761 140.404 29.761C139.756 29.761 139.378 30.229 139.27 31.165H141.313C141.325 31.063 141.331 30.964 141.331 30.868ZM145.366 29.617H147.472V29.833L146.851 29.878V33.739L147.472 33.784V34H145.366V33.784L145.987 33.739V29.869L145.366 29.833V29.617ZM152.537 32.317C152.537 32.827 152.342 33.253 151.952 33.595C151.562 33.931 151.052 34.099 150.422 34.099C149.798 34.099 149.315 33.961 148.973 33.685C148.637 33.409 148.469 33.064 148.469 32.65C148.469 32.23 148.598 31.873 148.856 31.579C149.12 31.279 149.474 31.066 149.918 30.94C149.534 30.736 149.243 30.52 149.045 30.292C148.847 30.058 148.748 29.758 148.748 29.392C148.748 28.918 148.916 28.543 149.252 28.267C149.588 27.991 150.038 27.853 150.602 27.853C151.166 27.853 151.592 27.979 151.88 28.231C152.174 28.477 152.321 28.795 152.321 29.185C152.321 29.575 152.186 29.905 151.916 30.175C151.646 30.445 151.364 30.595 151.07 30.625C151.562 30.877 151.928 31.123 152.168 31.363C152.414 31.603 152.537 31.921 152.537 32.317ZM150.503 33.82C150.821 33.82 151.1 33.718 151.34 33.514C151.586 33.304 151.709 33.019 151.709 32.659C151.709 32.299 151.589 32.011 151.349 31.795C151.109 31.573 150.752 31.342 150.278 31.102C149.984 31.27 149.759 31.492 149.603 31.768C149.447 32.038 149.369 32.335 149.369 32.659C149.369 32.983 149.477 33.259 149.693 33.487C149.915 33.709 150.185 33.82 150.503 33.82ZM150.539 28.114C150.269 28.114 150.029 28.213 149.819 28.411C149.615 28.603 149.513 28.864 149.513 29.194C149.513 29.518 149.615 29.773 149.819 29.959C150.029 30.145 150.341 30.319 150.755 30.481C151.253 30.235 151.502 29.794 151.502 29.158C151.502 28.822 151.409 28.564 151.223 28.384C151.037 28.204 150.809 28.114 150.539 28.114ZM158.139 33.334V33.802H156.924V35.62H156.069V33.802H153.36L153.234 33.505L156.195 29.608H156.924V33.334H158.139ZM156.069 33.343V30.382L153.873 33.343H156.069ZM159.765 35.053C159.975 35.335 160.278 35.476 160.674 35.476C161.07 35.476 161.373 35.341 161.583 35.071C161.793 34.807 161.898 34.462 161.898 34.036C161.898 33.61 161.757 33.274 161.475 33.028C161.199 32.776 160.83 32.65 160.368 32.65C160.224 32.65 160.089 32.662 159.963 32.686V32.434C160.461 32.41 160.881 32.26 161.223 31.984C161.571 31.702 161.745 31.306 161.745 30.796C161.745 30.466 161.652 30.211 161.466 30.031C161.286 29.845 161.058 29.752 160.782 29.752C160.506 29.752 160.269 29.866 160.071 30.094C159.927 30.25 159.855 30.454 159.855 30.706C159.855 30.802 159.867 30.907 159.891 31.021C159.765 31.075 159.654 31.102 159.558 31.102C159.468 31.102 159.39 31.084 159.324 31.048C159.174 30.964 159.099 30.814 159.099 30.598C159.099 30.268 159.267 30.001 159.603 29.797C159.945 29.593 160.311 29.491 160.701 29.491C161.091 29.491 161.415 29.533 161.673 29.617C161.937 29.701 162.165 29.854 162.357 30.076C162.549 30.298 162.645 30.577 162.645 30.913C162.645 31.243 162.522 31.558 162.276 31.858C162.036 32.152 161.703 32.335 161.277 32.407C161.727 32.455 162.096 32.611 162.384 32.875C162.678 33.139 162.825 33.514 162.825 34C162.825 34.486 162.624 34.894 162.222 35.224C161.826 35.56 161.307 35.728 160.665 35.728C160.029 35.728 159.549 35.617 159.225 35.395C158.907 35.179 158.748 34.9 158.748 34.558C158.748 34.348 158.817 34.192 158.955 34.09C159.033 34.03 159.123 34 159.225 34C159.333 34 159.441 34.015 159.549 34.045C159.537 34.135 159.531 34.219 159.531 34.297C159.531 34.585 159.609 34.837 159.765 35.053Z" fill="white"/>
<path fill-rule="evenodd" clip-rule="evenodd" d="M88.6173 27.6952C99.1379 15.9512 116.682 5.64108 136.293 3.4349C155.829 1.23708 177.477 7.07037 196.394 27.7079L196.84 28.1943H197.5H282V124.194H3L3 28.1943H87.5H88.1701L88.6173 27.6952ZM0 26.1943L4.41485e-06 25.1943H86.8347C97.8577 13.1482 115.845 2.71633 135.957 0.453706C156.265 -1.83091 178.679 4.22463 198.157 25.1943H285V26.1943V28.1943V124.194V127.194H282H3H4.41485e-06V28.1943L0 26.1943Z" fill="white"/>
<path fill-rule="evenodd" clip-rule="evenodd" d="M90.178 31.8204C100.402 20.0194 117.443 9.66973 136.478 7.45556C155.432 5.25078 176.451 11.0977 194.834 31.8333L195.282 32.3382H195.956H278V120H6.93561L6.93561 32.3382H89.0443H89.7294L90.178 31.8204ZM4.00061 30.7174V29.3382H88.3642C99.0802 17.2378 116.567 6.75136 136.131 4.47565C155.897 2.17641 177.696 8.27326 196.628 29.3382H281L281 30.7174L281 32.3382L281 120V123H278H6.93561H3.93561L3.93561 30.7174H4.00061Z" fill="white"/>
</svg>
